<?xml version="1.0" encoding="utf-8"?>
<!-- Generator: Adobe Illustrator 16.0.0, SVG Export Plug-In . SVG Version: 6.00 Build 0)  -->
<!DOCTYPE svg PUBLIC "-//W3C//DTD SVG 1.1//EN" "http://www.w3.org/Graphics/SVG/1.1/DTD/svg11.dtd">
<svg version="1.1" id="Layer_1" xmlns="http://www.w3.org/2000/svg" xmlns:xlink="http://www.w3.org/1999/xlink" x="0px" y="0px"
	 width="74px" height="103.5px" viewBox="0 -16.5 74 103.5" enable-background="new 0 -16.5 74 103.5" xml:space="preserve">
<g>
	<g>
		<g>
			
				<linearGradient id="SVGID_1_" gradientUnits="userSpaceOnUse" x1="-518.2651" y1="-815.8901" x2="2719.6873" y2="2737.2004" gradientTransform="matrix(1 0 0 1 -697.4297 -520.5723)">
				<stop  offset="0" style="stop-color:#A6A8AB"/>
				<stop  offset="1" style="stop-color:#404041"/>
			</linearGradient>
			<path fill="url(#SVGID_1_)" d="M35.948,44.638c-4.212,0-7.639-3.426-7.639-7.639s3.427-7.64,7.639-7.64
				c4.213,0,7.639,3.427,7.639,7.64S40.161,44.638,35.948,44.638z M35.948,31.933c-2.793,0-5.065,2.273-5.065,5.066
				s2.272,5.064,5.065,5.064c2.794,0,5.067-2.271,5.067-5.064S38.742,31.933,35.948,31.933z"/>
		</g>
		<g>
			
				<linearGradient id="SVGID_2_" gradientUnits="userSpaceOnUse" x1="-513.1704" y1="-820.6582" x2="2724.9482" y2="2732.616" gradientTransform="matrix(1 0 0 1 -697.4297 -520.5723)">
				<stop  offset="0" style="stop-color:#A6A8AB"/>
				<stop  offset="1" style="stop-color:#404041"/>
			</linearGradient>
			<path fill="url(#SVGID_2_)" d="M60.906,65.84h-0.002c-2.555-0.001-4.896-1.285-6.266-3.438c-0.637-0.991-1.023-2.137-1.133-3.312
				c-0.006-0.048-0.01-0.097-0.012-0.146c-0.016-0.195-0.021-0.398-0.021-0.605l-2.07-12.578l-5.576-13.815
				c-0.234-0.582-0.018-1.249,0.521-1.578l3.607-2.223c0.293-0.18,0.646-0.237,0.979-0.154c0.334,0.082,0.623,0.294,0.799,0.59
				L67.18,54.46c1.047,1.644,1.396,3.63,0.967,5.563c-0.431,1.938-1.588,3.591-3.263,4.653C63.691,65.438,62.314,65.84,60.906,65.84
				z M56.066,58.787c0,0.007,0,0.015,0.002,0.021c0.062,0.797,0.312,1.541,0.74,2.211c0.895,1.406,2.426,2.248,4.096,2.248l0,0
				c0.92,0,1.818-0.264,2.6-0.761c1.092-0.694,1.85-1.774,2.131-3.039c0.279-1.265,0.051-2.562-0.645-3.655L50.195,31.017
				l-1.572,0.969l5.223,12.94c0.035,0.087,0.062,0.179,0.076,0.272l2.113,12.831c0.014,0.078,0.018,0.158,0.018,0.238
				c-0.004,0.172-0.002,0.342,0.012,0.515C56.066,58.784,56.066,58.786,56.066,58.787z"/>
		</g>
		<g>
			
				<linearGradient id="SVGID_3_" gradientUnits="userSpaceOnUse" x1="-518.4111" y1="-816.0493" x2="2719.9194" y2="2737.4563" gradientTransform="matrix(1 0 0 1 -697.4297 -520.5723)">
				<stop  offset="0" style="stop-color:#A6A8AB"/>
				<stop  offset="1" style="stop-color:#404041"/>
			</linearGradient>
			<path fill="url(#SVGID_3_)" d="M35.948,67.271C19.257,67.271,5.677,53.689,5.677,37c0-16.692,13.58-30.271,30.271-30.271
				c16.692,0,30.272,13.58,30.272,30.271c0,2.765-0.371,5.502-1.105,8.138c-0.41,1.471-0.936,2.922-1.564,4.313
				c-0.293,0.647-1.057,0.934-1.703,0.643c-0.646-0.292-0.936-1.055-0.643-1.702c0.574-1.271,1.055-2.601,1.43-3.943
				c0.672-2.411,1.012-4.916,1.012-7.447c0-15.272-12.424-27.698-27.696-27.698C20.676,9.301,8.25,21.727,8.25,36.999
				c0,15.271,12.426,27.696,27.698,27.696c5.487,0,10.788-1.6,15.331-4.625c0.592-0.395,1.391-0.233,1.785,0.357
				c0.394,0.59,0.232,1.391-0.357,1.784C47.738,65.521,41.943,67.271,35.948,67.271z"/>
		</g>
	</g>
	<g>
		
			<linearGradient id="SVGID_4_" gradientUnits="userSpaceOnUse" x1="-517.8174" y1="-816.5518" x2="2720.467" y2="2736.9031" gradientTransform="matrix(1 0 0 1 -697.4297 -520.5723)">
			<stop  offset="0" style="stop-color:#A6A8AB"/>
			<stop  offset="1" style="stop-color:#404041"/>
		</linearGradient>
		<path fill="url(#SVGID_4_)" d="M69.49,73.998H4.508C2.022,73.998,0,71.977,0,69.489V4.508C0,2.022,2.022,0,4.508,0H69.49
			C71.977,0,74,2.022,74,4.508v64.981C74,71.977,71.977,73.998,69.49,73.998z M4.508,2.574c-1.067,0-1.935,0.868-1.935,1.935V69.49
			c0,1.064,0.868,1.936,1.935,1.936H69.49c1.068,0,1.936-0.867,1.936-1.936V4.508c0-1.067-0.867-1.935-1.936-1.935L4.508,2.574
			L4.508,2.574z"/>
	</g>
</g>
</svg>
