<?xml version="1.0" encoding="utf-8"?>
<!-- Generator: Adobe Illustrator 16.0.0, SVG Export Plug-In . SVG Version: 6.00 Build 0)  -->
<!DOCTYPE svg PUBLIC "-//W3C//DTD SVG 1.1//EN" "http://www.w3.org/Graphics/SVG/1.1/DTD/svg11.dtd">
<svg version="1.1" id="Layer_1" xmlns="http://www.w3.org/2000/svg" xmlns:xlink="http://www.w3.org/1999/xlink" x="0px" y="0px"
	 width="95.721px" height="95px" viewBox="0 -23.07 95.721 95" enable-background="new 0 -23.07 95.721 95" xml:space="preserve">
<g>
	<g>
		<g>
			
				<linearGradient id="SVGID_1_" gradientUnits="userSpaceOnUse" x1="-1366.7976" y1="1735.6414" x2="2118.0054" y2="-2088.3247" gradientTransform="matrix(1 0 0 -1 -348.7148 -173.9243)">
				<stop  offset="0" style="stop-color:#A6A8AB"/>
				<stop  offset="1" style="stop-color:#404041"/>
			</linearGradient>
			<path fill="url(#SVGID_1_)" d="M94.336,50.861H52.194c-0.752,0-1.366-0.602-1.384-1.354c-0.002-0.043-0.163-4.588-2.949-4.588
				c-0.625,0-1.099,0.188-1.489,0.586c-0.955,0.978-1.183,2.973-1.194,3.79c0.008,0.06,0.012,0.118,0.012,0.181
				c0,0.765-0.62,1.385-1.386,1.385c-0.002-0.001-0.006-0.001-0.01,0H1.385C0.62,50.861,0,50.241,0,49.477V22.648
				c0-0.766,0.62-1.386,1.385-1.386h1.662v-6.007H1.385C0.62,15.256,0,14.635,0,13.871V1.385C0,0.62,0.62,0,1.385,0h92.952
				c0.764,0,1.385,0.62,1.385,1.385v12.486c0,0.765-0.621,1.385-1.385,1.385h-1.662v6.007h1.662c0.764,0,1.385,0.62,1.385,1.386
				v26.828C95.721,50.241,95.1,50.861,94.336,50.861z M53.45,48.091h39.5V24.033h-1.66c-0.767,0-1.388-0.62-1.388-1.385v-8.777
				c0-0.765,0.621-1.385,1.388-1.385h1.66V2.77H2.771v9.716h1.661c0.765,0,1.386,0.62,1.386,1.385v8.777
				c0,0.765-0.621,1.385-1.386,1.385H2.771v24.058h39.72c0.159-1.303,0.615-3.208,1.901-4.521c0.907-0.928,2.107-1.418,3.469-1.418
				C51.547,42.151,53.034,45.519,53.45,48.091z"/>
		</g>
	</g>
	<g>
		
			<linearGradient id="SVGID_2_" gradientUnits="userSpaceOnUse" x1="-1380.1936" y1="1723.2947" x2="2104.4783" y2="-2100.5278" gradientTransform="matrix(1 0 0 -1 -348.7148 -173.9243)">
			<stop  offset="0" style="stop-color:#A6A8AB"/>
			<stop  offset="1" style="stop-color:#404041"/>
		</linearGradient>
		<path fill="url(#SVGID_2_)" d="M23.942,30.946H10.993c-0.767,0-1.386-0.62-1.386-1.385V8.693c0-0.767,0.619-1.385,1.386-1.385
			h12.948c0.767,0,1.386,0.618,1.386,1.385v20.868C25.327,30.326,24.708,30.946,23.942,30.946z M12.378,28.177h10.18V10.078h-10.18
			V28.177z"/>
	</g>
	<g>
		
			<linearGradient id="SVGID_3_" gradientUnits="userSpaceOnUse" x1="-1369.2219" y1="1733.4441" x2="2115.6023" y2="-2090.5454" gradientTransform="matrix(1 0 0 -1 -348.7148 -173.9243)">
			<stop  offset="0" style="stop-color:#A6A8AB"/>
			<stop  offset="1" style="stop-color:#404041"/>
		</linearGradient>
		<path fill="url(#SVGID_3_)" d="M44.163,30.946H31.214c-0.766,0-1.385-0.62-1.385-1.385V8.693c0-0.767,0.619-1.385,1.385-1.385
			h12.949c0.766,0,1.386,0.618,1.386,1.385v20.868C45.549,30.326,44.929,30.946,44.163,30.946z M32.599,28.177h10.18V10.078h-10.18
			V28.177z"/>
	</g>
	<g>
		
			<linearGradient id="SVGID_4_" gradientUnits="userSpaceOnUse" x1="-1357.2917" y1="1744.2507" x2="2127.4651" y2="-2079.6648" gradientTransform="matrix(1 0 0 -1 -348.7148 -173.9243)">
			<stop  offset="0" style="stop-color:#A6A8AB"/>
			<stop  offset="1" style="stop-color:#404041"/>
		</linearGradient>
		<path fill="url(#SVGID_4_)" d="M65.944,30.946H52.995c-0.767,0-1.388-0.62-1.388-1.385V8.693c0-0.767,0.621-1.385,1.388-1.385
			h12.948c0.767,0,1.386,0.618,1.386,1.385v20.868C67.329,30.326,66.709,30.946,65.944,30.946z M54.379,28.177h10.18V10.078h-10.18
			V28.177z"/>
	</g>
	<g>
		
			<linearGradient id="SVGID_5_" gradientUnits="userSpaceOnUse" x1="-1346.2844" y1="1754.3621" x2="2138.5527" y2="-2069.6416" gradientTransform="matrix(1 0 0 -1 -348.7148 -173.9243)">
			<stop  offset="0" style="stop-color:#A6A8AB"/>
			<stop  offset="1" style="stop-color:#404041"/>
		</linearGradient>
		<path fill="url(#SVGID_5_)" d="M86.165,30.946h-12.95c-0.766,0-1.385-0.62-1.385-1.385V8.693c0-0.767,0.619-1.385,1.385-1.385
			h12.949c0.766,0,1.385,0.618,1.385,1.385v20.868C87.549,30.326,86.93,30.946,86.165,30.946z M74.6,28.177h10.18V10.078H74.6
			V28.177z"/>
	</g>
	<g>
		
			<linearGradient id="SVGID_6_" gradientUnits="userSpaceOnUse" x1="-1400.7546" y1="1704.4148" x2="2083.7795" y2="-2119.2563" gradientTransform="matrix(1 0 0 -1 -348.7148 -173.9243)">
			<stop  offset="0" style="stop-color:#A6A8AB"/>
			<stop  offset="1" style="stop-color:#404041"/>
		</linearGradient>
		<path fill="url(#SVGID_6_)" d="M6.218,50.861H1.385C0.62,50.861,0,50.241,0,49.477v-7.811c0-0.764,0.62-1.385,1.385-1.385h4.833
			c0.766,0,1.385,0.621,1.385,1.385v7.811C7.603,50.241,6.983,50.861,6.218,50.861z M2.771,48.091h2.062v-5.037H2.771V48.091z"/>
	</g>
	<g>
		
			<linearGradient id="SVGID_7_" gradientUnits="userSpaceOnUse" x1="-1398.0916" y1="1706.7966" x2="2086.3975" y2="-2116.8252" gradientTransform="matrix(1 0 0 -1 -348.7148 -173.9243)">
			<stop  offset="0" style="stop-color:#A6A8AB"/>
			<stop  offset="1" style="stop-color:#404041"/>
		</linearGradient>
		<path fill="url(#SVGID_7_)" d="M11.052,50.861H6.218c-0.765,0-1.385-0.62-1.385-1.385v-7.811c0-0.764,0.62-1.385,1.385-1.385
			h4.834c0.765,0,1.385,0.621,1.385,1.385v7.811C12.437,50.241,11.816,50.861,11.052,50.861z M7.603,48.091h2.064v-5.037H7.603
			V48.091z"/>
	</g>
	<g>
		
			<linearGradient id="SVGID_8_" gradientUnits="userSpaceOnUse" x1="-1395.6433" y1="1709.4138" x2="2089.2285" y2="-2114.6279" gradientTransform="matrix(1 0 0 -1 -348.7148 -173.9243)">
			<stop  offset="0" style="stop-color:#A6A8AB"/>
			<stop  offset="1" style="stop-color:#404041"/>
		</linearGradient>
		<path fill="url(#SVGID_8_)" d="M15.886,50.861h-4.834c-0.766,0-1.385-0.62-1.385-1.385v-7.811c0-0.764,0.619-1.385,1.385-1.385
			h4.834c0.765,0,1.385,0.621,1.385,1.385v7.811C17.271,50.241,16.65,50.861,15.886,50.861z M12.437,48.091h2.064v-5.037h-2.064
			V48.091z"/>
	</g>
	<g>
		
			<linearGradient id="SVGID_9_" gradientUnits="userSpaceOnUse" x1="-1392.9021" y1="1711.7097" x2="2091.7695" y2="-2112.1123" gradientTransform="matrix(1 0 0 -1 -348.7148 -173.9243)">
			<stop  offset="0" style="stop-color:#A6A8AB"/>
			<stop  offset="1" style="stop-color:#404041"/>
		</linearGradient>
		<path fill="url(#SVGID_9_)" d="M20.719,50.861h-4.833c-0.766,0-1.385-0.62-1.385-1.385v-7.811c0-0.764,0.619-1.385,1.385-1.385
			h4.833c0.765,0,1.385,0.621,1.385,1.385v7.811C22.104,50.241,21.483,50.861,20.719,50.861z M17.271,48.091h2.062v-5.037h-2.062
			V48.091z"/>
	</g>
	<g>
		
			<linearGradient id="SVGID_10_" gradientUnits="userSpaceOnUse" x1="-1390.0701" y1="1713.907" x2="2094.2253" y2="-2109.5022" gradientTransform="matrix(1 0 0 -1 -348.7148 -173.9243)">
			<stop  offset="0" style="stop-color:#A6A8AB"/>
			<stop  offset="1" style="stop-color:#404041"/>
		</linearGradient>
		<path fill="url(#SVGID_10_)" d="M25.552,50.861h-4.833c-0.765,0-1.386-0.62-1.386-1.385v-7.811c0-0.764,0.621-1.385,1.386-1.385
			h4.833c0.766,0,1.385,0.621,1.385,1.385v7.811C26.937,50.241,26.317,50.861,25.552,50.861z M22.104,48.091h2.063v-5.037h-2.063
			V48.091z"/>
	</g>
	<g>
		
			<linearGradient id="SVGID_11_" gradientUnits="userSpaceOnUse" x1="-1387.6853" y1="1716.5945" x2="2097.1145" y2="-2107.3684" gradientTransform="matrix(1 0 0 -1 -348.7148 -173.9243)">
			<stop  offset="0" style="stop-color:#A6A8AB"/>
			<stop  offset="1" style="stop-color:#404041"/>
		</linearGradient>
		<path fill="url(#SVGID_11_)" d="M30.386,50.861h-4.834c-0.765,0-1.385-0.62-1.385-1.385v-7.811c0-0.764,0.62-1.385,1.385-1.385
			h4.834c0.764,0,1.385,0.621,1.385,1.385v7.811C31.771,50.241,31.149,50.861,30.386,50.861z M26.937,48.091H29v-5.037h-2.063
			V48.091z"/>
	</g>
	<g>
		
			<linearGradient id="SVGID_12_" gradientUnits="userSpaceOnUse" x1="-1385.1306" y1="1719.0945" x2="2099.8359" y2="-2105.0513" gradientTransform="matrix(1 0 0 -1 -348.7148 -173.9243)">
			<stop  offset="0" style="stop-color:#A6A8AB"/>
			<stop  offset="1" style="stop-color:#404041"/>
		</linearGradient>
		<path fill="url(#SVGID_12_)" d="M35.219,50.861h-4.833c-0.766,0-1.386-0.62-1.386-1.385v-7.811c0-0.764,0.62-1.385,1.386-1.385
			h4.833c0.765,0,1.386,0.621,1.386,1.385v7.811C36.604,50.241,35.983,50.861,35.219,50.861z M31.771,48.091h2.063v-5.037h-2.063
			V48.091z"/>
	</g>
	<g>
		
			<linearGradient id="SVGID_13_" gradientUnits="userSpaceOnUse" x1="-1382.2009" y1="1721.1824" x2="2102.1958" y2="-2102.3379" gradientTransform="matrix(1 0 0 -1 -348.7148 -173.9243)">
			<stop  offset="0" style="stop-color:#A6A8AB"/>
			<stop  offset="1" style="stop-color:#404041"/>
		</linearGradient>
		<path fill="url(#SVGID_13_)" d="M40.052,50.861h-4.833c-0.765,0-1.385-0.62-1.385-1.385v-7.811c0-0.764,0.62-1.385,1.385-1.385
			h4.833c0.766,0,1.385,0.621,1.385,1.385v7.811C41.437,50.241,40.817,50.861,40.052,50.861z M36.604,48.091h2.062v-5.037h-2.062
			V48.091z"/>
	</g>
	<g>
		
			<linearGradient id="SVGID_14_" gradientUnits="userSpaceOnUse" x1="-1370.4094" y1="1731.7332" x2="2113.8" y2="-2091.5818" gradientTransform="matrix(1 0 0 -1 -348.7148 -173.9243)">
			<stop  offset="0" style="stop-color:#A6A8AB"/>
			<stop  offset="1" style="stop-color:#404041"/>
		</linearGradient>
		<path fill="url(#SVGID_14_)" d="M61.393,50.861h-4.705c-0.766,0-1.385-0.62-1.385-1.385v-7.811c0-0.764,0.619-1.385,1.385-1.385
			h4.705c0.767,0,1.385,0.621,1.385,1.385v7.811C62.778,50.241,62.159,50.861,61.393,50.861z M58.073,48.091h1.936v-5.037h-1.936
			V48.091z"/>
	</g>
	<g>
		
			<linearGradient id="SVGID_15_" gradientUnits="userSpaceOnUse" x1="-1368.1042" y1="1734.3679" x2="2116.6277" y2="-2089.5203" gradientTransform="matrix(1 0 0 -1 -348.7148 -173.9243)">
			<stop  offset="0" style="stop-color:#A6A8AB"/>
			<stop  offset="1" style="stop-color:#404041"/>
		</linearGradient>
		<path fill="url(#SVGID_15_)" d="M66.1,50.861h-4.707c-0.764,0-1.385-0.62-1.385-1.385v-7.811c0-0.764,0.621-1.385,1.385-1.385
			H66.1c0.767,0,1.385,0.621,1.385,1.385v7.811C67.485,50.241,66.866,50.861,66.1,50.861z M62.778,48.091h1.938v-5.037h-1.938
			V48.091z"/>
	</g>
	<g>
		
			<linearGradient id="SVGID_16_" gradientUnits="userSpaceOnUse" x1="-1365.5818" y1="1736.7615" x2="2119.2427" y2="-2087.2285" gradientTransform="matrix(1 0 0 -1 -348.7148 -173.9243)">
			<stop  offset="0" style="stop-color:#A6A8AB"/>
			<stop  offset="1" style="stop-color:#404041"/>
		</linearGradient>
		<path fill="url(#SVGID_16_)" d="M70.805,50.861H66.1c-0.766,0-1.385-0.62-1.385-1.385v-7.811c0-0.764,0.619-1.385,1.385-1.385
			h4.705c0.766,0,1.387,0.621,1.387,1.385v7.811C72.192,50.241,71.571,50.861,70.805,50.861z M67.485,48.091h1.937v-5.037h-1.937
			V48.091z"/>
	</g>
	<g>
		
			<linearGradient id="SVGID_17_" gradientUnits="userSpaceOnUse" x1="-1363.0134" y1="1739.1072" x2="2121.8132" y2="-2084.8848" gradientTransform="matrix(1 0 0 -1 -348.7148 -173.9243)">
			<stop  offset="0" style="stop-color:#A6A8AB"/>
			<stop  offset="1" style="stop-color:#404041"/>
		</linearGradient>
		<path fill="url(#SVGID_17_)" d="M75.512,50.861h-4.707c-0.764,0-1.385-0.62-1.385-1.385v-7.811c0-0.764,0.621-1.385,1.385-1.385
			h4.707c0.764,0,1.385,0.621,1.385,1.385v7.811C76.897,50.241,76.276,50.861,75.512,50.861z M72.192,48.091h1.937v-5.037h-1.937
			V48.091z"/>
	</g>
	<g>
		
			<linearGradient id="SVGID_18_" gradientUnits="userSpaceOnUse" x1="-1360.1492" y1="1741.1287" x2="2124.1074" y2="-2082.238" gradientTransform="matrix(1 0 0 -1 -348.7148 -173.9243)">
			<stop  offset="0" style="stop-color:#A6A8AB"/>
			<stop  offset="1" style="stop-color:#404041"/>
		</linearGradient>
		<path fill="url(#SVGID_18_)" d="M80.217,50.861h-4.705c-0.766,0-1.385-0.62-1.385-1.385v-7.811c0-0.764,0.619-1.385,1.385-1.385
			h4.705c0.766,0,1.385,0.621,1.385,1.385v7.811C81.602,50.241,80.983,50.861,80.217,50.861z M76.897,48.091h1.937v-5.037h-1.937
			V48.091z"/>
	</g>
	<g>
		
			<linearGradient id="SVGID_19_" gradientUnits="userSpaceOnUse" x1="-1357.78" y1="1743.6941" x2="2126.8716" y2="-2080.106" gradientTransform="matrix(1 0 0 -1 -348.7148 -173.9243)">
			<stop  offset="0" style="stop-color:#A6A8AB"/>
			<stop  offset="1" style="stop-color:#404041"/>
		</linearGradient>
		<path fill="url(#SVGID_19_)" d="M84.924,50.861h-4.707c-0.764,0-1.385-0.62-1.385-1.385v-7.811c0-0.764,0.621-1.385,1.385-1.385
			h4.707c0.764,0,1.385,0.621,1.385,1.385v7.811C86.309,50.241,85.688,50.861,84.924,50.861z M81.602,48.091h1.937v-5.037h-1.937
			V48.091z"/>
	</g>
	<g>
		
			<linearGradient id="SVGID_20_" gradientUnits="userSpaceOnUse" x1="-1355.2834" y1="1746.115" x2="2129.5093" y2="-2077.8398" gradientTransform="matrix(1 0 0 -1 -348.7148 -173.9243)">
			<stop  offset="0" style="stop-color:#A6A8AB"/>
			<stop  offset="1" style="stop-color:#404041"/>
		</linearGradient>
		<path fill="url(#SVGID_20_)" d="M89.629,50.861h-4.705c-0.766,0-1.387-0.62-1.387-1.385v-7.811c0-0.764,0.621-1.385,1.387-1.385
			h4.705c0.766,0,1.385,0.621,1.385,1.385v7.811C91.014,50.241,90.395,50.861,89.629,50.861z M86.309,48.091h1.937v-5.037h-1.937
			V48.091z"/>
	</g>
	<g>
		
			<linearGradient id="SVGID_21_" gradientUnits="userSpaceOnUse" x1="-1352.7112" y1="1748.4587" x2="2132.0818" y2="-2075.4966" gradientTransform="matrix(1 0 0 -1 -348.7148 -173.9243)">
			<stop  offset="0" style="stop-color:#A6A8AB"/>
			<stop  offset="1" style="stop-color:#404041"/>
		</linearGradient>
		<path fill="url(#SVGID_21_)" d="M94.336,50.861h-4.707c-0.767,0-1.385-0.62-1.385-1.385v-7.811c0-0.764,0.618-1.385,1.385-1.385
			h4.707c0.764,0,1.385,0.621,1.385,1.385v7.811C95.721,50.241,95.1,50.861,94.336,50.861z M91.014,48.091h1.937v-5.037h-1.937
			V48.091z"/>
	</g>
</g>
</svg>
